<svg width="160" height="160" viewBox="0 0 160 160" fill="none" xmlns="http://www.w3.org/2000/svg">
<path d="M76.875 59.3926V58.3926C76.6101 58.3926 76.3561 58.4977 76.1687 58.6847L76.875 59.3926ZM55.6194 80.602V81.602C55.8842 81.602 56.1382 81.4969 56.3257 81.3099L55.6194 80.602ZM114.243 44.7278L113.784 43.8394C113.452 44.0111 113.243 44.3538 113.243 44.7278H114.243ZM112.262 3.4375L112.633 2.50904C112.325 2.38579 111.976 2.42339 111.701 2.60942C111.427 2.79545 111.262 3.10567 111.262 3.4375H112.262ZM112.262 20.9788L112.676 21.8891C113.033 21.7269 113.262 21.3709 113.262 20.9788H112.262ZM103.829 24.8116L103.416 25.7219C103.679 25.8414 103.98 25.8414 104.243 25.7219L103.829 24.8116ZM95.3969 20.9788H94.3969C94.3969 21.3709 94.6262 21.7269 94.9832 21.8891L95.3969 20.9788ZM95.3969 3.4375H96.3969C96.3969 3.10567 96.2323 2.79545 95.9576 2.60942C95.6828 2.42339 95.3336 2.38579 95.0255 2.50904L95.3969 3.4375ZM81.1151 25.1359L82.1147 25.1102V25.1102L81.1151 25.1359ZM93.4154 44.6994H94.4154C94.4154 44.3265 94.2079 43.9846 93.8772 43.8124L93.4154 44.6994ZM43.3819 124.892C42.8296 124.892 42.3819 125.339 42.3819 125.892C42.3819 126.444 42.8296 126.892 43.3819 126.892V125.892V124.892ZM55.6194 125.892L56.1045 125.017C55.956 124.935 55.7891 124.892 55.6194 124.892V125.892ZM69.2191 133.436L68.734 134.311C68.8824 134.393 69.0493 134.436 69.2191 134.436V133.436ZM107.604 117.363C107.052 117.363 106.604 117.811 106.604 118.363C106.604 118.915 107.052 119.363 107.604 119.363V118.363V117.363ZM107.604 102.29C107.052 102.29 106.604 102.738 106.604 103.29C106.604 103.842 107.052 104.29 107.604 104.29V103.29V102.29ZM107.604 87.2167C107.052 87.2167 106.604 87.6644 106.604 88.2167C106.604 88.769 107.052 89.2167 107.604 89.2167V88.2167V87.2167ZM85.8916 72.1436C85.3393 72.1436 84.8916 72.5913 84.8916 73.1436C84.8916 73.6959 85.3393 74.1436 85.8916 74.1436V73.1436V72.1436ZM26.5068 77.477V76.477C25.9546 76.477 25.5068 76.9247 25.5068 77.477H26.5068ZM43.3818 77.477H44.3818C44.3818 76.9247 43.9341 76.477 43.3818 76.477V77.477ZM43.3818 129.017V130.017C43.9341 130.017 44.3818 129.569 44.3818 129.017H43.3818ZM26.5068 129.017H25.5068C25.5068 129.569 25.9546 130.017 26.5068 130.017V129.017ZM93.4156 59.3926V58.3926H76.875V59.3926V60.3926H93.4156V59.3926ZM76.875 59.3926L76.1687 58.6847L54.913 79.8941L55.6194 80.602L56.3257 81.3099L77.5813 60.1005L76.875 59.3926ZM55.6194 80.602V79.602H43.3819V80.602V81.602H55.6194V80.602ZM114.243 133.454H113.243V146.148H114.243H115.243V133.454H114.243ZM114.243 146.148H113.243C113.243 151.347 109.028 155.562 103.829 155.562V156.562V157.562C110.133 157.562 115.243 152.452 115.243 146.148H114.243ZM103.829 156.562V155.562C98.6305 155.562 94.4157 151.347 94.4157 146.148H93.4157H92.4157C92.4157 152.452 97.5259 157.562 103.829 157.562V156.562ZM93.4157 146.148H94.4157V133.436H93.4157H92.4157V146.148H93.4157ZM114.243 73.1434H115.243V44.7278H114.243H113.243V73.1434H114.243ZM114.243 44.7278L114.702 45.6162C122.33 41.675 127.551 33.7194 127.551 24.5362H126.551H125.551C125.551 32.9413 120.774 40.2275 113.784 43.8394L114.243 44.7278ZM126.551 24.5362H127.551C127.551 14.5446 121.372 6.00491 112.633 2.50904L112.262 3.4375L111.891 4.36596C119.897 7.56884 125.551 15.391 125.551 24.5362H126.551ZM112.262 3.4375H111.262V20.9788H112.262H113.262V3.4375H112.262ZM112.262 20.9788L111.848 20.0684L103.416 23.9012L103.829 24.8116L104.243 25.7219L112.676 21.8891L112.262 20.9788ZM103.829 24.8116L104.243 23.9012L95.8107 20.0684L95.3969 20.9788L94.9832 21.8891L103.416 25.7219L103.829 24.8116ZM95.3969 20.9788H96.3969V3.4375H95.3969H94.3969V20.9788H95.3969ZM95.3969 3.4375L95.0255 2.50904C86.1052 6.07763 79.8511 14.903 80.1154 25.1617L81.1151 25.1359L82.1147 25.1102C81.8728 15.7189 87.5956 7.6355 95.7684 4.36596L95.3969 3.4375ZM81.1151 25.1359L80.1154 25.1617C80.344 34.0345 85.5274 41.7194 92.9535 45.5863L93.4154 44.6994L93.8772 43.8124C87.0634 40.2643 82.3237 33.2198 82.1147 25.1102L81.1151 25.1359ZM93.4154 44.6994H92.4154V73.1434H93.4154H94.4154V44.6994H93.4154ZM43.3819 125.892V126.892H55.6194V125.892V124.892H43.3819V125.892ZM55.6194 125.892L55.1343 126.766L68.734 134.311L69.2191 133.436L69.7042 132.562L56.1045 125.017L55.6194 125.892ZM69.2191 133.436V134.436H116.521V133.436V132.436H69.2191V133.436ZM116.521 133.436V134.436C121.236 134.436 125.058 130.614 125.058 125.9H124.058H123.058C123.058 129.509 120.131 132.436 116.521 132.436V133.436ZM124.058 125.9H125.058C125.058 121.185 121.236 117.363 116.521 117.363V118.363V119.363C120.131 119.363 123.058 122.29 123.058 125.9H124.058ZM116.521 118.363V117.363H107.604V118.363V119.363H116.521V118.363ZM107.604 118.363V119.363H121.546V118.363V117.363H107.604V118.363ZM121.546 118.363V119.363C126.26 119.363 130.082 115.541 130.082 110.826H129.082H128.082C128.082 114.436 125.156 117.363 121.546 117.363V118.363ZM129.082 110.826H130.082C130.082 106.112 126.26 102.29 121.546 102.29V103.29V104.29C125.156 104.29 128.082 107.216 128.082 110.826H129.082ZM121.546 103.29V102.29H107.604V103.29V104.29H121.546V103.29ZM107.604 103.29V104.29H125.957V103.29V102.29H107.604V103.29ZM125.957 103.29V104.29C130.672 104.29 134.494 100.468 134.494 95.7533H133.494H132.494C132.494 99.3632 129.567 102.29 125.957 102.29V103.29ZM133.494 95.7533H134.494C134.494 91.0388 130.672 87.2167 125.957 87.2167V88.2167V89.2167C129.567 89.2167 132.494 92.1433 132.494 95.7533H133.494ZM125.957 88.2167V87.2167H107.604V88.2167V89.2167H125.957V88.2167ZM107.604 88.2167V89.2167H121.546V88.2167V87.2167H107.604V88.2167ZM121.546 88.2167V89.2167C126.26 89.2167 130.082 85.3946 130.082 80.6801H129.082H128.082C128.082 84.29 125.156 87.2167 121.546 87.2167V88.2167ZM129.082 80.6801H130.082C130.082 75.9657 126.26 72.1436 121.546 72.1436V73.1436V74.1436C125.156 74.1436 128.082 77.0702 128.082 80.6801H129.082ZM121.546 73.1436V72.1436H85.8916V73.1436V74.1436H121.546V73.1436ZM26.5068 77.477V78.477H43.3818V77.477V76.477H26.5068V77.477ZM43.3818 77.477H42.3818V129.017H43.3818H44.3818V77.477H43.3818ZM43.3818 129.017V128.017H26.5068V129.017V130.017H43.3818V129.017ZM26.5068 129.017H27.5068V77.477H26.5068H25.5068V129.017H26.5068Z" fill="#22304D"/>
</svg>
