<svg width="160" height="160" viewBox="0 0 160 160" fill="none" xmlns="http://www.w3.org/2000/svg">
<path d="M98.7497 96.3078V145.937C98.7497 151.115 94.5522 155.312 89.3748 155.312H14.0625C8.88499 155.312 4.6875 151.115 4.6875 145.937V14.0627C4.6875 10.7512 6.40468 7.84055 8.99717 6.17275C10.5075 5.20055 12.2663 4.68493 14.0625 4.68776H89.3748C94.5522 4.68776 98.7497 8.88524 98.7497 14.0627V71.5676M42.4999 136.562H61.2498M42.4999 23.4377H61.2498M23.4374 108.125L42.4999 89.375V108.125L51.8749 98.75L61.2498 108.125H75.4501M23.4374 51.8751H61.2498M23.4374 70.6251H61.2498M110.161 86.6725C100.413 96.4206 88.5289 103.765 75.4504 108.125C79.8098 95.0462 87.1544 83.1625 96.9025 73.1019L139.308 30.8042C142.969 27.4555 148.905 27.4555 152.566 31.1167C156.227 34.778 156.227 40.7139 152.566 44.3748L110.161 86.6725Z" stroke="#22304D" stroke-width="2" stroke-miterlimit="10" stroke-linecap="round" stroke-linejoin="round"/>
</svg>
