<svg width="160" height="160" viewBox="0 0 160 160" fill="none" xmlns="http://www.w3.org/2000/svg">
<path d="M29.4584 112.791C25.3496 106.481 22.4674 99.4529 20.9628 92.0749L4.6875 90.0415V69.9581L20.9628 67.9246C22.5259 60.2552 25.5472 53.1156 29.7241 46.8046L19.6456 33.8459L33.8466 19.6446L46.8047 29.724C53.2167 25.475 60.3869 22.5005 67.9238 20.9627L69.9581 4.68774H90.0416L92.0759 20.9627C99.7444 22.5268 106.885 25.5468 113.195 29.724L126.153 19.6446L140.354 33.8459L130.276 46.8046C134.453 53.1134 137.474 60.2556 139.037 67.9246L155.312 69.9584V90.0418L139.037 92.0752C137.474 99.7446 134.453 106.884 130.276 113.195L140.354 126.154L126.153 140.355L113.195 130.276C106.783 134.525 99.6131 137.499 92.0763 139.037L90.0419 155.312H69.9584L67.9241 139.037C60.5471 137.531 53.5198 134.649 47.21 130.542M112.092 65.6606C114.054 70.0387 115.146 74.894 115.146 79.9999C115.146 99.3977 99.3975 115.146 80 115.146C74.8925 115.146 70.0381 114.054 65.6594 112.093L22.4391 155.312L4.6875 137.561L47.9081 94.3393C45.9459 89.9612 44.8541 85.1059 44.8541 79.9999C44.8541 60.6021 60.6025 44.854 80 44.854C85.1069 44.854 89.9609 45.9459 94.3406 47.9068L71.2278 71.0202L74.9791 85.0209L88.9791 88.7715L112.092 65.6606Z" stroke="#22304D" stroke-width="2" stroke-miterlimit="10" stroke-linecap="round" stroke-linejoin="round"/>
</svg>
