<svg width="160" height="160" viewBox="0 0 160 160" fill="none" xmlns="http://www.w3.org/2000/svg">
<path d="M79.9998 142.76C79.9998 149.664 74.3514 155.312 67.4476 155.312H17.2397C10.3359 155.312 4.6875 149.664 4.6875 142.76V92.5522C4.6875 85.6485 10.3359 80 17.2397 80H67.4476C74.3514 80 79.9998 85.6485 79.9998 92.5522M79.9998 142.76V92.5522M79.9998 142.76C79.9998 149.664 85.6482 155.312 92.5519 155.312H142.76C149.664 155.312 155.312 149.664 155.312 142.76V92.5522C155.312 85.6485 149.664 80 142.76 80H92.5519C85.6482 80 79.9998 85.6485 79.9998 92.5522M105.104 80C112.007 80 117.656 74.3519 117.656 67.4482V17.2399C117.656 10.3362 112.007 4.68776 105.104 4.68776H54.8958C47.9921 4.68776 42.3436 10.3362 42.3436 17.2399V67.4482C42.3436 74.3519 47.9921 80 54.8958 80M105.104 80H54.8958M105.104 80V100.083H130.208V80L105.104 80ZM54.8958 80L29.7915 80V100.083H54.8958L54.8958 80ZM117.656 64.9376H42.3436M4.6875 140.25H155.312M92.5519 24.7711H67.4476V4.68774H92.5519V24.7711Z" stroke="#22304D" stroke-width="2" stroke-miterlimit="10" stroke-linecap="round" stroke-linejoin="round"/>
</svg>
