<svg width="110" height="38" viewBox="0 0 110 38" fill="none" xmlns="http://www.w3.org/2000/svg">
<path d="M67.4922 17.3954L68.8088 13.8209C68.8088 13.8209 79.8019 13.7521 84.8806 13.7417C85.3183 13.7417 87.5155 13.7314 87.5155 12.18C87.5155 10.9421 86.385 10.6563 85.999 10.5684C85.625 10.5357 74.1976 10.4823 74.1976 10.4823C71.1146 10.4617 68.8381 8.44718 68.8381 4.87099C68.8381 2.54311 70.8372 0.711107 73.1757 0.242776C73.7875 0.120528 74.4234 0.0637085 75.049 0.0619867L90.4986 0.0550995C90.4986 0.0550995 89.4233 2.81515 88.9476 3.96876L75.5246 3.96015C75.0283 3.96532 74.3924 4.25458 74.077 4.62821C73.5118 5.29799 73.9874 6.36724 74.8646 6.58935C75.2472 6.68577 75.6608 6.68405 76.0588 6.68749C79.7588 6.71676 83.4623 6.63756 87.1553 6.79424C89.6404 6.65306 92.153 9.42688 92.153 12.0268C92.153 14.6078 89.8851 17.0459 87.2002 17.3437C86.9158 17.3747 86.628 17.3937 86.3419 17.3937C80.3172 17.3971 67.4922 17.3954 67.4922 17.3954Z" fill="white"/>
<path d="M40.1642 0.0533752V3.7828H23.553V6.74086H37.7481L36.3298 10.4806L23.4807 10.4961L23.5117 13.6057L40.2038 13.6246L40.1711 17.4436L24.0614 17.3937C20.937 17.3782 18.7915 15.1932 18.7949 12.0647V5.35826C18.8104 2.26762 21.0318 0.0568189 24.1183 0.055097H40.1625L40.1642 0.0533752Z" fill="white"/>
<path d="M42.6865 17.3971V0L60.0146 0.0585414C62.7754 0.0654286 65.3483 1.72525 66.1513 4.38544C67.0957 7.45541 65.0881 10.8611 61.8327 11.6824C61.3639 11.8012 60.8745 11.9011 60.3954 11.9028C56.723 11.9235 48.6182 11.8925 48.6182 11.8925L50.1313 8.23539C52.7801 8.20612 59.6148 8.2199 60.2266 8.05288C61.3415 7.74812 61.7431 6.98536 61.7431 5.8352C61.7431 4.68503 61.0503 4.0032 60.0232 3.80174C59.613 3.72082 47.2551 3.77936 47.2533 3.77936L47.324 17.4126L42.6865 17.3971Z" fill="white"/>
<path d="M47.4814 29.9646C47.4814 27.7882 47.4814 24.8301 47.4814 22.6538C47.4814 22.6538 51.9552 22.6624 53.9232 22.7898C56.0326 22.9276 57.6646 24.0037 58.4763 25.9562C59.3879 28.5114 59.6447 32.0118 58.0885 34.8631C57.2407 36.3077 55.8758 37.1565 54.2283 37.2908C52.1758 37.4579 47.4832 37.3942 47.4832 37.3942C47.4883 35.1317 47.4866 32.227 47.4866 29.9646H47.4832H47.4814ZM49.1014 36.0477C49.1014 36.0477 52.374 36.0598 53.6234 35.9375C55.781 35.786 56.8581 34.121 57.1907 33.0914C57.7525 31.4763 57.6577 29.0107 57.3285 27.4817C56.877 25.6446 55.7431 24.4393 53.8026 24.2292C52.5877 24.0967 49.0893 24.1397 49.0893 24.1397C49.0893 24.1397 49.1221 34.3035 49.1014 36.0494V36.0477Z" fill="#2F5FF5"/>
<path d="M74.2235 22.6899V24.0794L65.5345 24.1276L65.5672 29.1398C67.6318 29.1019 71.449 29.1312 73.5135 29.1209L73.5032 30.4381L65.5535 30.4914L65.6121 35.8256L74.5044 35.8428L74.5199 37.4579L63.9646 37.4079C63.9732 32.9106 63.8853 27.2183 63.8818 22.7209L74.2252 22.6917L74.2235 22.6899Z" fill="#2F5FF5"/>
<path d="M28.0164 26.8343H26.3189C26.3189 26.8343 26.2344 26.304 26.0328 25.8977C25.2349 24.2998 23.1876 23.4527 21.061 23.8401C18.9103 24.2327 17.299 25.8546 16.9991 28.365C16.8268 29.8079 16.9044 31.3661 17.2714 32.7694C18.0331 35.6758 21.3643 37.0429 24.1199 35.8497C26.5481 34.7994 26.5257 32.0359 26.5257 32.0359C26.5257 32.0359 28.2352 32.0359 28.1904 32.0359C28.1904 34.7942 25.9897 37.3632 23.241 37.6576C18.4536 38.1707 15.1517 35.1593 15.0966 30.3106C15.0725 28.1963 15.5412 26.0664 16.8268 24.3756C19.0999 21.3865 25.2073 21.6896 26.9496 24.3325C26.9496 24.3325 27.6889 25.159 28.0164 26.8343Z" fill="#2F5FF5"/>
<path d="M5.20312 32.8589C6.07513 32.8693 6.94541 32.8693 7.81741 32.8589H5.20312Z" fill="#405EA9"/>
<path d="M0.0136719 9.44582V8.01672H17.1573V9.44582H0.0136719Z" fill="white"/>
<path d="M92.8457 9.42516V8.00639H110V9.42516H92.8457Z" fill="white"/>
<path d="M3.13643 33.5614C3.12781 33.5855 3.12092 33.6096 3.1123 33.6337L3.20192 33.3875C3.17779 33.4409 3.15711 33.4994 3.13643 33.5614Z" fill="#405EA9"/>
<path d="M12.8026 37.401L7.58609 23.1135L7.42237 22.6641H5.48535L0 37.5181H1.69748L1.85085 37.098V37.0946L3.11233 33.6337C3.12095 33.6096 3.12784 33.5855 3.13646 33.5614C3.15714 33.4994 3.17782 33.4409 3.20194 33.3875V33.3841L3.39495 32.8589H9.44728L9.51277 33.0449L11.0793 37.5181H12.8457L12.8026 37.401ZM3.90851 31.4746C4.75811 29.0555 5.58358 26.7035 6.40733 24.3532C6.48833 24.3532 6.5676 24.3515 6.64687 24.3515C7.43788 26.688 8.23061 29.0245 9.05953 31.4746H3.90851Z" fill="#2F5FF5"/>
<path d="M43.2743 37.401L38.0578 23.1135L37.894 22.6641H35.957L30.4717 37.5181H32.1692L32.3225 37.098V37.0946L33.584 33.6337C33.5926 33.6096 33.5995 33.5855 33.6081 33.5614C33.6288 33.4994 33.6495 33.4409 33.6736 33.3875V33.3841L33.8666 32.8589H39.919L39.9844 33.0449L41.5509 37.5181H43.3174L43.2743 37.401ZM34.3802 31.4746C35.2298 29.0555 36.0553 26.7035 36.879 24.3532C36.96 24.3532 37.0393 24.3515 37.1186 24.3515C37.9096 26.688 38.7023 29.0245 39.5312 31.4746H34.3802Z" fill="#2F5FF5"/>
<path d="M91.6896 22.6176H91.2519L86.2336 35.223L81.2497 22.6176H80.6775H78.9697V37.4406H80.6775V25.376L85.5718 37.4406H86.7678L91.6896 25.3278V37.4406H93.3957V22.6176H91.6896Z" fill="#2F5FF5"/>
<path d="M109.952 22.6176H108.221L103.711 29.8372L99.291 22.6176H97.3799L102.832 31.1165V37.3976H104.518V31.113L109.952 22.6176Z" fill="#2F5FF5"/>
</svg>
