<svg width="887" height="282" viewBox="0 0 887 282" fill="none" xmlns="http://www.w3.org/2000/svg">
<path d="M388.205 220.148C388.205 202.775 388.205 179.161 388.205 161.787C388.205 161.787 423.919 161.856 439.629 162.873C456.468 163.973 469.496 172.563 475.976 188.15C483.253 208.547 485.303 236.491 472.88 259.253C466.112 270.785 455.216 277.561 442.064 278.633C425.68 279.966 388.219 279.458 388.219 279.458C388.26 261.397 388.246 238.209 388.246 220.148H388.219H388.205ZM401.137 268.709C401.137 268.709 427.262 268.805 437.235 267.829C454.459 266.62 463.058 253.329 465.713 245.109C470.198 232.216 469.441 212.534 466.813 200.328C463.209 185.662 454.157 176.041 438.666 174.364C428.967 173.305 401.04 173.649 401.04 173.649C401.04 173.649 401.302 254.786 401.137 268.723V268.709Z" fill="#2F5FF5"/>
<path d="M601.682 162.07V173.163L532.319 173.547L532.58 213.559C549.061 213.257 579.533 213.49 596.014 213.408L595.932 223.923L532.47 224.349L532.938 266.931L603.925 267.068L604.049 279.961L519.786 279.562C519.855 243.66 519.153 198.22 519.126 162.318L601.696 162.084L601.682 162.07Z" fill="#2F5FF5"/>
<path d="M232.816 195.155H219.265C219.265 195.155 218.591 190.921 216.982 187.678C210.612 174.922 194.269 168.16 177.292 171.252C160.123 174.386 147.261 187.334 144.867 207.374C143.491 218.892 144.11 231.332 147.04 242.534C153.121 265.735 179.714 276.649 201.711 267.123C221.095 258.739 220.916 236.678 220.916 236.678C220.916 236.678 234.563 236.678 234.205 236.678C234.205 258.698 216.638 279.205 194.695 281.556C156.478 285.652 130.119 261.612 129.679 222.906C129.486 206.027 133.228 189.025 143.491 175.527C161.637 151.666 210.392 154.085 224.3 175.183C224.3 175.183 230.202 181.781 232.816 195.155Z" fill="#2F5FF5"/>
<path d="M111.368 279.512L69.7248 165.457L68.4179 161.869H52.9549L9.16602 280.447H22.7168L23.9412 277.093V277.066L34.0114 249.438C34.0802 249.246 34.1352 249.053 34.204 248.861C34.3691 248.366 34.5341 247.899 34.7267 247.473V247.445L36.2675 243.253H84.5825L85.1053 244.738L97.6105 280.447H111.712L111.368 279.512ZM40.3672 232.202C47.1494 212.89 53.7391 194.115 60.315 175.353C60.9616 175.353 61.5944 175.339 62.2272 175.339C68.5417 193.991 74.87 212.643 81.4872 232.202H40.3672Z" fill="#2F5FF5"/>
<path d="M354.618 279.512L312.975 165.457L311.668 161.869H296.205L252.416 280.447H265.967L267.191 277.093V277.066L277.261 249.438C277.33 249.246 277.385 249.053 277.454 248.861C277.619 248.366 277.784 247.899 277.977 247.473V247.445L279.518 243.253H327.833L328.355 244.738L340.861 280.447H354.962L354.618 279.512ZM283.617 232.202C290.399 212.89 296.989 194.115 303.565 175.353C304.212 175.353 304.844 175.339 305.477 175.339C311.792 193.991 318.12 212.643 324.737 232.202H283.617Z" fill="#2F5FF5"/>
<path d="M741.113 161.494H737.618L697.558 262.121L657.772 161.494H653.205H639.571V279.825H653.205V183.514L692.275 279.825H701.822L741.113 183.129V279.825H754.732V161.494H741.113Z" fill="#2F5FF5"/>
<path d="M886.895 161.494H873.083L837.081 219.127L801.794 161.494H786.537L830.065 229.339V279.481H843.519V229.312L886.895 161.494Z" fill="#2F5FF5"/>
<g clip-path="url(#clip0_201_496)">
<path d="M534.946 139.828L545.561 111.004C545.561 111.004 634.19 110.449 675.136 110.366C678.665 110.366 696.379 110.283 696.379 97.7728C696.379 87.79 687.265 85.4853 684.153 84.7772C681.138 84.5134 589.007 84.0829 589.007 84.0829C564.151 83.9163 545.797 67.6718 545.797 38.8342C545.797 20.0627 561.914 5.28989 580.768 1.51338C585.701 0.527601 590.827 0.0694212 595.871 0.055537L720.43 0C720.43 0 711.76 22.2564 707.925 31.5589L599.706 31.4895C595.704 31.5311 590.577 33.8637 588.035 36.8765C583.478 42.2775 587.312 50.8996 594.384 52.6907C597.469 53.4682 600.803 53.4543 604.013 53.4821C633.843 53.7181 663.701 53.0794 693.476 54.3429C713.51 53.2044 733.768 75.5719 733.768 96.5371C733.768 117.35 715.483 137.01 693.837 139.412C691.544 139.662 689.224 139.814 686.918 139.814C638.345 139.842 534.946 139.828 534.946 139.828Z" fill="white"/>
<path d="M534.946 139.828L545.561 111.004C545.561 111.004 634.19 110.449 675.136 110.366C678.665 110.366 696.379 110.283 696.379 97.7728C696.379 87.79 687.265 85.4853 684.153 84.7772C681.138 84.5134 589.007 84.0829 589.007 84.0829C564.151 83.9163 545.797 67.6718 545.797 38.8342C545.797 20.0627 561.914 5.28989 580.768 1.51338C585.701 0.527601 590.827 0.0694212 595.871 0.055537L720.43 0C720.43 0 711.76 22.2564 707.925 31.5589L599.706 31.4895C595.704 31.5311 590.577 33.8637 588.035 36.8765C583.478 42.2775 587.312 50.8996 594.384 52.6907C597.469 53.4682 600.803 53.4543 604.013 53.4821C633.843 53.7181 663.701 53.0794 693.476 54.3429C713.51 53.2044 733.768 75.5719 733.768 96.5371C733.768 117.35 715.483 137.01 693.837 139.412C691.544 139.662 689.224 139.814 686.918 139.814C638.345 139.842 534.946 139.828 534.946 139.828Z" fill="url(#paint0_linear_201_496)" fill-opacity="0.7"/>
<path d="M323.7 0.430406V30.5037H189.776V54.3568H304.22L292.786 84.5134L189.193 84.6383L189.443 109.713L324.019 109.866L323.755 140.661L193.875 140.259C168.686 140.134 151.388 122.515 151.415 97.2869V43.2078C151.54 18.2855 169.45 0.458174 194.334 0.44429H323.686L323.7 0.430406Z" fill="white"/>
<path d="M323.7 0.430406V30.5037H189.776V54.3568H304.22L292.786 84.5134L189.193 84.6383L189.443 109.713L324.019 109.866L323.755 140.661L193.875 140.259C168.686 140.134 151.388 122.515 151.415 97.2869V43.2078C151.54 18.2855 169.45 0.458174 194.334 0.44429H323.686L323.7 0.430406Z" fill="url(#paint1_linear_201_496)" fill-opacity="0.7"/>
<path d="M344.04 140.286V0L483.743 0.472064C506.001 0.527601 526.745 13.912 533.219 35.3632C540.833 60.1188 524.647 87.5818 498.401 94.2046C494.622 95.1626 490.676 95.9678 486.813 95.9817C457.206 96.1483 391.863 95.8984 391.863 95.8984L404.061 66.4083C425.416 66.1723 480.52 66.2833 485.452 64.9366C494.441 62.4791 497.679 56.3284 497.679 47.0537C497.679 37.779 492.093 32.2809 483.812 30.6564C480.506 30.0038 380.873 30.4759 380.859 30.4759L381.428 140.411L344.04 140.286Z" fill="white"/>
<path d="M344.04 140.286V0L483.743 0.472064C506.001 0.527601 526.745 13.912 533.219 35.3632C540.833 60.1188 524.647 87.5818 498.401 94.2046C494.622 95.1626 490.676 95.9678 486.813 95.9817C457.206 96.1483 391.863 95.8984 391.863 95.8984L404.061 66.4083C425.416 66.1723 480.52 66.2833 485.452 64.9366C494.441 62.4791 497.679 56.3284 497.679 47.0537C497.679 37.779 492.093 32.2809 483.812 30.6564C480.506 30.0038 380.873 30.4759 380.859 30.4759L381.428 140.411L344.04 140.286Z" fill="url(#paint2_linear_201_496)" fill-opacity="0.7"/>
<path d="M0 76.1689V64.645H138.216V76.1689H0Z" fill="white"/>
<path d="M0 76.1689V64.645H138.216V76.1689H0Z" fill="url(#paint3_linear_201_496)" fill-opacity="0.7"/>
<path d="M748.436 76.0031V64.5625H886.735V76.0031H748.436Z" fill="white"/>
</g>
<defs>
<linearGradient id="paint0_linear_201_496" x1="609.72" y1="174.311" x2="522.352" y2="101.087" gradientUnits="userSpaceOnUse">
<stop stop-color="white"/>
<stop offset="0.475334" stop-color="#22304D" stop-opacity="0.7"/>
<stop offset="1" stop-color="white"/>
</linearGradient>
<linearGradient id="paint1_linear_201_496" x1="201.247" y1="175.345" x2="134.84" y2="26.4371" gradientUnits="userSpaceOnUse">
<stop stop-color="white"/>
<stop offset="0.475334" stop-color="#22304D" stop-opacity="0.7"/>
<stop offset="1" stop-color="white"/>
</linearGradient>
<linearGradient id="paint2_linear_201_496" x1="201.247" y1="175.345" x2="134.84" y2="26.4371" gradientUnits="userSpaceOnUse">
<stop stop-color="white"/>
<stop offset="0.475334" stop-color="#22304D" stop-opacity="0.7"/>
<stop offset="1" stop-color="white"/>
</linearGradient>
<linearGradient id="paint3_linear_201_496" x1="201.247" y1="175.345" x2="134.84" y2="26.4371" gradientUnits="userSpaceOnUse">
<stop stop-color="white"/>
<stop offset="0.475334" stop-color="#22304D" stop-opacity="0.7"/>
<stop offset="1" stop-color="white"/>
</linearGradient>
<clipPath id="clip0_201_496">
<rect width="886.735" height="141.001" fill="white"/>
</clipPath>
</defs>
</svg>
