<svg display="none" xmlns="http://www.w3.org/2000/svg">

    <symbol id="arrow-diagonal" viewBox="0 0 12 12">
        <path
            d="M2.84079 0L2.84079 1.59074H9.20376L0.000183105 10.7943L1.13643 11.9306L10.34 2.72698V9.08995H11.9307V3.37175e-07L2.84079 0Z" />
    </symbol>

    <symbol id="arrow-bottom" viewBox="0 0 14 14">
        <path
            d="M0.572266 4.34783L1.69709 3.223L7.05025 8.513L12.3026 3.223L13.4274 4.34783L6.99983 10.7754L0.572266 4.34783Z" />
    </symbol>

    <symbol id="arrow-left" viewBox="0 0 14 14">
        <path
            d="M9.6512 0.572266L10.776 1.69709L5.48603 7.05025L10.776 12.3026L9.6512 13.4274L3.22363 6.99983L9.6512 0.572266Z" />
    </symbol>

    <symbol id="arrow-right" viewBox="0 0 14 14">
        <path
            d="M4.3488 0.572266L3.22398 1.69709L8.51397 7.05025L3.22398 12.3026L4.3488 13.4274L10.7764 6.99983L4.3488 0.572266Z" />
    </symbol>

    <symbol id="file-icon" viewBox="0 0 40 40">
        <path
            d="M34.5715 19.5381L20.1215 34.1096C19.5608 34.6808 18.8919 35.1346 18.1538 35.4444C17.4158 35.7542 16.6234 35.9138 15.8229 35.9138C15.0225 35.9138 14.2301 35.7542 13.492 35.4444C12.7539 35.1346 12.085 34.6808 11.5243 34.1096L7.20148 29.7138C6.06983 28.5644 5.43555 27.0161 5.43555 25.4031C5.43555 23.7901 6.06983 22.2418 7.20148 21.0924L22.5986 5.6467C23.0502 5.19144 23.5874 4.8301 24.1792 4.58351C24.7711 4.33692 25.406 4.20996 26.0472 4.20996C26.6884 4.20996 27.3232 4.33692 27.9151 4.58351C28.507 4.8301 29.0442 5.19144 29.4958 5.6467L31.22 7.37098C31.6753 7.82252 32.0366 8.35972 32.2832 8.95161C32.5298 9.5435 32.6568 10.1784 32.6568 10.8196C32.6568 11.4608 32.5298 12.0956 32.2832 12.6875C32.0366 13.2794 31.6753 13.8166 31.22 14.2681L17.5715 27.9653C17.3457 28.1929 17.0771 28.3736 16.7812 28.4969C16.4852 28.6202 16.1678 28.6836 15.8472 28.6836C15.5266 28.6836 15.2092 28.6202 14.9132 28.4969C14.6173 28.3736 14.3487 28.1929 14.1229 27.9653L13.2729 27.091C13.0453 26.8652 12.8646 26.5966 12.7413 26.3007C12.618 26.0047 12.5545 25.6873 12.5545 25.3667C12.5545 25.0461 12.618 24.7287 12.7413 24.4327C12.8646 24.1368 13.0453 23.8682 13.2729 23.6424L22.4286 14.5596"
            stroke-width="2" stroke-linecap="round" stroke-linejoin="round" />
    </symbol>

</svg>