<svg width="40" height="40" viewBox="0 0 40 40" fill="none" xmlns="http://www.w3.org/2000/svg">
<path d="M33.8069 5.08452C34.5774 4.11877 35.9743 3.96953 36.9271 4.75053C37.8794 5.53185 38.0266 6.94846 37.2564 7.91461L16.4445 34.0226L16.4401 34.0292C16.0059 34.5697 15.4571 35.0066 14.8324 35.3058L14.8302 35.308C14.2064 35.606 13.5222 35.7584 12.8281 35.7496C12.2994 35.7431 11.7784 35.6435 11.2875 35.4574L10.8065 35.2421C10.1815 34.9179 9.63864 34.4526 9.21825 33.8864V33.8842L2.70273 25.2005C1.96129 24.2116 2.15024 22.7997 3.12526 22.0475C4.10033 21.2956 5.49265 21.4875 6.23459 22.4759L12.7588 31.1705L12.7653 31.1793C12.7851 31.2061 12.8075 31.2236 12.8281 31.2343H12.8259C12.8465 31.2449 12.8658 31.2494 12.8823 31.2496C12.8976 31.2498 12.9163 31.2457 12.9364 31.2364C12.9562 31.227 12.9792 31.2109 12.9993 31.1859L33.8069 5.08452Z" stroke="#2F5FF5" stroke-width="2" stroke-linecap="round" stroke-linejoin="round"/>
</svg>
